<svg xmlns="http://www.w3.org/2000/svg" xmlns:xlink="http://www.w3.org/1999/xlink" width="2000" zoomAndPan="magnify" viewBox="0 0 1500 1499.999933" height="2000" preserveAspectRatio="xMidYMid meet" version="1.0"><defs><g/></defs><g fill="#000000" fill-opacity="1"><g transform="translate(385.720284, 1206.719876)"><g><path d="M 201.25 -402.515625 L 201.25 0 L 92.375 0 L 92.375 -911.453125 L 201.25 -911.453125 L 201.25 -512 L 179.234375 -512 C 200.035156 -573.988281 229.601562 -618.335938 267.9375 -645.046875 C 306.269531 -671.765625 351.332031 -685.125 403.125 -685.125 C 448.800781 -685.125 489.171875 -675.640625 524.234375 -656.671875 C 559.304688 -637.710938 586.734375 -609.164062 606.515625 -571.03125 C 626.296875 -532.90625 636.1875 -484.890625 636.1875 -426.984375 L 636.1875 0 L 526.6875 0 L 526.6875 -418.421875 C 526.6875 -471.429688 513.023438 -512.71875 485.703125 -542.28125 C 458.378906 -571.851562 420.859375 -586.640625 373.140625 -586.640625 C 340.515625 -586.640625 311.253906 -579.707031 285.359375 -565.84375 C 259.460938 -551.976562 238.96875 -531.378906 223.875 -504.046875 C 208.789062 -476.722656 201.25 -442.878906 201.25 -402.515625 Z M 201.25 -402.515625 "/></g></g></g></svg>